<svg xmlns="http://www.w3.org/2000/svg" viewBox="0 0 100 100" fill="none">
  <!-- Male Avatar Circle Background -->
  <circle cx="50" cy="50" r="45" fill="#E8F5E9"/>

  <!-- Male Head -->
  <circle cx="50" cy="35" r="15" fill="#4CAF50"/>

  <!-- Male Body/Shoulders -->
  <path d="M25 75 Q25 55 50 55 Q75 55 75 75 L75 85 Q75 90 70 90 L30 90 Q25 90 25 85 Z" fill="#4CAF50"/>

  <!-- Shield Badge -->
  <path d="M70 65 L70 78 Q70 88 60 92 Q50 88 50 78 L50 65 Q60 62 70 65 Z" fill="#2E7D32"/>

  <!-- Checkmark on Shield -->
  <path d="M55 77 L58 80 L65 72" stroke="white" stroke-width="3" stroke-linecap="round" stroke-linejoin="round" fill="none"/>

  <!-- Subtle Smile -->
  <path d="M44 40 Q50 45 56 40" stroke="#2E7D32" stroke-width="2" stroke-linecap="round" fill="none"/>

  <!-- Eyes -->
  <circle cx="44" cy="33" r="2" fill="#2E7D32"/>
  <circle cx="56" cy="33" r="2" fill="#2E7D32"/>
</svg>
